<svg width="177" height="56" viewBox="0 0 177 56" fill="none" xmlns="http://www.w3.org/2000/svg">
<path d="M62.295 0H42.7745C38.6473 0 35.3017 3.37213 35.3017 7.53182V27.2075C35.3017 27.5376 35.3573 27.8524 35.3981 28.1715H35.364C35.4263 31.6438 32.9541 32.7152 32.9541 32.7152C32.9541 32.7152 31.7004 34.0387 29.6632 34.7393H19.3646C19.1756 34.7393 18.9958 34.7732 18.8127 34.7955C18.7935 34.7906 18.7832 34.7855 18.7636 34.7807C14.4588 33.7266 13.0593 29.4742 13.0593 29.4742V23.2411C13.0593 21.3276 11.5201 19.7764 9.62168 19.7764H3.43758C1.53913 19.7764 0 21.3276 0 23.2411V29.4742C0 31.3877 1.53913 32.9391 3.43758 32.9391H9.62168C9.96015 32.9391 10.2805 32.8746 10.5895 32.7827C10.5944 32.7846 10.5967 32.7869 10.6015 32.7891C13.3352 33.9553 15.233 37.2689 15.233 37.2689C15.233 37.2689 15.2541 37.2649 15.2598 37.2638C14.9207 37.9147 14.7106 38.6442 14.7106 39.4304V51.3091C14.7106 53.8998 16.7943 56 19.3646 56H31.9014C34.4717 56 36.5554 53.8998 36.5554 51.3091V39.4304C36.5554 38.9635 36.467 38.5217 36.3411 38.0961C36.7906 37.2581 38.3928 34.6722 41.1284 34.5543C41.1377 34.5538 41.1431 34.5505 41.1522 34.55C41.6759 34.6671 42.2158 34.7393 42.7745 34.7393H62.295C66.422 34.7393 69.7678 31.3671 69.7678 27.2075V7.53182C69.7678 3.37213 66.422 0 62.295 0Z" fill="#0092FD"/>
<path d="M61.8797 55.421H57.4395C56.4586 55.421 55.6636 54.6195 55.6636 53.631V49.1556C55.6636 48.1669 56.4586 47.3654 57.4395 47.3654H61.8797C62.8606 47.3654 63.6556 48.1669 63.6556 49.1556V53.631C63.6556 54.6195 62.8606 55.421 61.8797 55.421Z" fill="#0092FD"/>
<path d="M99.155 19.0206C98.7659 15.8464 96.4319 13.4548 93.2816 13.4548C90.0528 13.4548 87.7582 15.9256 87.3297 19.0206H99.155ZM87.2134 20.5107C87.2134 24.5888 90.1691 27.2537 93.5142 27.2537C96.0819 27.2537 98.0265 25.7252 99.0376 23.6085L100.361 24.3928C99.4267 26.1965 97.3266 28.7438 93.3979 28.7438C88.4581 28.7438 85.5796 25.0602 85.5796 20.3935C85.5796 14.8276 89.391 11.9643 93.2816 11.9643C97.5603 11.9643 100.788 15.4134 100.788 20.5107H87.2134Z" fill="#0092FD" stroke="#0092FD" stroke-width="1.06912"/>
<path d="M116.943 16.1947C115.864 14.9459 113.985 13.4956 111.307 13.4956C107.308 13.4956 104.511 16.5978 104.511 20.6266C104.511 25.3413 108.068 27.6764 111.226 27.6764C113.825 27.6764 115.864 26.1475 117.143 24.7366V26.912C116.064 27.8779 114.064 29.2079 111.186 29.2079C106.269 29.2079 102.832 25.5429 102.832 20.666C102.832 15.7916 106.069 11.9644 111.307 11.9644C112.465 11.9644 114.704 12.1659 116.943 14.0584V16.1947Z" fill="#0092FD" stroke="#0092FD" stroke-width="1.06912"/>
<path d="M133.791 20.8635C133.791 17.0016 130.928 13.9988 127.136 13.9988C123.345 13.9988 120.481 17.0016 120.481 20.8635C120.481 24.7229 123.345 27.7257 127.136 27.7257C130.928 27.7257 133.791 24.7229 133.791 20.8635ZM135.416 20.8635C135.416 25.5819 131.818 29.2079 127.136 29.2079C122.455 29.2079 118.856 25.5819 118.856 20.8635C118.856 16.1426 122.455 12.5166 127.136 12.5166C131.818 12.5166 135.416 16.1426 135.416 20.8635Z" fill="#0092FD" stroke="#0092FD" stroke-width="1.06912"/>
<path d="M156.002 28.55L148.925 12.5168H150.603L156.841 26.5392L162.275 12.5168H163.953L154.178 37.1653H152.5L156.002 28.55Z" fill="#0092FD" stroke="#0092FD" stroke-width="1.06912"/>
<path d="M173.522 15.2745C172.922 13.8944 171.725 13.2925 170.487 13.2925C168.52 13.2925 167.537 14.8014 167.537 16.092C167.537 17.8163 168.905 18.3764 170.615 19.065C172.367 19.7564 173.992 20.2295 175.103 21.6517C175.83 22.556 176 23.5048 176 24.4958C176 28.5016 173.009 30.0949 170.316 30.0949C167.408 30.0949 165.015 28.3731 164.288 25.4419L165.955 24.9243C166.554 27.2532 168.391 28.4571 170.316 28.4571C172.539 28.4571 174.206 26.8641 174.206 24.5798C174.206 22.5978 172.967 21.867 170.316 20.7893C168.563 20.056 167.28 19.4959 166.511 18.4631C166.126 17.9451 165.741 17.2143 165.741 16.1788C165.741 13.5081 167.751 11.655 170.401 11.655C172.453 11.655 174.161 12.6038 174.975 14.4991L173.522 15.2745Z" fill="#0092FD" stroke="#0092FD" stroke-width="1.06912"/>
<path d="M145.798 15.2745C145.198 13.8944 144.001 13.2925 142.762 13.2925C140.796 13.2925 139.813 14.8014 139.813 16.092C139.813 17.8163 141.18 18.3764 142.89 19.065C144.642 19.7564 146.267 20.2295 147.378 21.6517C148.106 22.556 148.275 23.5048 148.275 24.4958C148.275 28.5016 145.284 30.0949 142.591 30.0949C139.683 30.0949 137.291 28.3731 136.563 25.4419L138.231 24.9243C138.829 27.2532 140.667 28.4571 142.591 28.4571C144.815 28.4571 146.481 26.8641 146.481 24.5798C146.481 22.5978 145.242 21.867 142.591 20.7893C140.839 20.056 139.556 19.4959 138.786 18.4631C138.402 17.9451 138.017 17.2143 138.017 16.1788C138.017 13.5081 140.026 11.655 142.676 11.655C144.729 11.655 146.437 12.6038 147.25 14.4991L145.798 15.2745Z" fill="#0092FD" stroke="#0092FD" stroke-width="1.06912"/>
<path d="M92.8737 44.1362L91.1018 39.3098L89.3297 44.1362H92.8737ZM93.5826 45.5606H88.565L87.4645 48.1884H84.8345L90.1878 35.6697H92.0895L97.295 48.1884H94.6832L93.5826 45.5606Z" fill="#111214"/>
<path d="M100.946 35.8229V43.2634C100.946 44.2185 101.273 44.7988 101.56 45.1176C101.924 45.5483 102.595 45.979 103.591 45.979C104.589 45.979 105.259 45.5483 105.624 45.1176C105.912 44.7988 106.237 44.2185 106.237 43.2634V35.8445H108.729V43.0578C108.729 44.2367 108.537 45.4351 107.771 46.3903C106.851 47.5703 105.241 48.1882 103.591 48.1882C101.944 48.1882 100.334 47.5703 99.413 46.3903C98.647 45.4351 98.4552 44.2367 98.4552 43.0578V35.8229H100.946Z" fill="#111214"/>
<path d="M117.165 37.8597V47.8082H114.543V37.8597H110.701V35.6946H121.446V37.8597H117.165Z" fill="#111214"/>
<path d="M132.917 42.0045C132.917 39.5272 131.155 37.7663 128.666 37.7663C126.176 37.7663 124.416 39.5272 124.416 42.0045C124.416 44.4819 126.176 46.2249 128.666 46.2249C131.155 46.2249 132.917 44.4819 132.917 42.0045ZM135.482 42.0045C135.482 45.7289 132.686 48.3897 128.666 48.3897C124.645 48.3897 121.849 45.7289 121.849 42.0045C121.849 38.2801 124.645 35.6013 128.666 35.6013C132.686 35.6013 135.482 38.2801 135.482 42.0045Z" fill="#111214"/>
</svg>
